<?xml version="1.0" encoding="iso-8859-1"?>
<!-- Generator: Adobe Illustrator 19.0.0, SVG Export Plug-In . SVG Version: 6.00 Build 0)  -->
<svg version="1.1" id="Capa_1" xmlns="http://www.w3.org/2000/svg" xmlns:xlink="http://www.w3.org/1999/xlink" x="0px" y="0px"
	 viewBox="0 0 480 480" style="enable-background:new 0 0 480 480;" xml:space="preserve">
<path style="fill:#F8C09C;" d="M320.672,33.456l-0.96-0.592L328,8h-74.744C224.28,8.001,196.49,19.512,176,40h-7.32
	c-14.35,0-26.706,10.128-29.52,24.2c-1.976,9.873,1.113,20.08,8.232,27.2L168,112v128l72,24l72-24V128l17.496-17.496
	c19.345-19.339,19.35-50.698,0.011-70.043c-2.661-2.662-5.618-5.012-8.811-7.005H320.672z"/>
<path style="fill:#7D8F9F;" d="M320.672,33.456l-0.96-0.592L328,8h-74.744C224.28,8.001,196.49,19.512,176,40h-7.32
	c-14.35,0-26.706,10.128-29.52,24.2c-1.976,9.873,1.113,20.08,8.232,27.2L168,112l32-40l49.88,5.544
	c14.35,1.592,28.826-1.567,41.208-8.992c2.785-1.694,5.44-3.593,7.944-5.68C307.455,74.935,311.981,89.288,312,104v24l17.496-17.496
	c19.345-19.339,19.35-50.698,0.011-70.043c-2.661-2.662-5.618-5.012-8.811-7.005H320.672z"/>
<path style="fill:#F6F6E7;" d="M312,240l-72,24l-72-24v2.176C167.998,307.373,193.898,369.9,240,416
	c46.102-46.1,72.002-108.627,72-173.824V240z"/>
<path style="fill:#2276BB;" d="M318.832,252.168l-6.904-7.112C311.198,309.245,285.381,370.6,240,416
	c-45.378-45.403-71.194-106.756-71.928-170.944l-6.904,7.112C103.984,311.059,71.999,389.915,72,472h336
	C408.002,389.915,376.016,311.059,318.832,252.168z"/>
<path style="fill:#88D0EF;" d="M206.144,373.6c9.686,15.34,21.04,29.56,33.856,42.4c12.818-12.838,24.173-27.058,33.856-42.4
	L240,272L206.144,373.6z"/>
<g>
	<path style="fill:#1D5C88;" d="M240,464c-0.86-0.002-1.713-0.142-2.528-0.416L145.6,432.969l-36.6,29.28
		c-3.433,2.781-8.471,2.252-11.252-1.182c-2.781-3.434-2.252-8.471,1.182-11.252c0.026-0.021,0.052-0.042,0.078-0.062l43.392-34.72
		l100.136,33.384c4.189,1.406,6.444,5.942,5.038,10.13C246.481,461.801,243.434,463.996,240,464z"/>
	<path style="fill:#1D5C88;" d="M240,464c-4.418,0.007-8.006-3.568-8.013-7.987c-0.006-3.345,2.071-6.341,5.205-7.509l64-24
		c4.14-1.546,8.75,0.556,10.296,4.696c1.546,4.14-0.556,8.75-4.696,10.296l0,0l-64,24C241.898,463.825,240.953,463.995,240,464
		L240,464z"/>
</g>
<path style="fill:#F8C09C;" d="M296,424l56-24l15.72,15.712c5.301,5.306,8.279,12.5,8.28,20c0,15.62-12.66,28.284-28.28,28.288
	c-7.503,0.003-14.699-2.979-20-8.288L296,424z"/>
<path d="M160,241.888l-4.568,4.712C96.648,306.884,63.825,387.801,64,472c0,4.418,3.582,8,8,8s8-3.582,8-8
	c-0.136-77.014,28.787-151.244,80.992-207.864c4.987,59.547,30.986,115.38,73.352,157.52c3.124,3.123,8.188,3.123,11.312,0
	c42.366-42.14,68.365-97.973,73.352-157.52C371.215,320.755,400.138,394.986,400,472c0,4.418,3.582,8,8,8s8-3.582,8-8
	c0.178-84.199-32.642-165.116-91.424-225.4L320,241.888V131.313l15.152-15.144c22.426-22.412,22.438-58.761,0.025-81.187
	c-1.872-1.874-3.872-3.615-5.985-5.213l6.4-19.2c1.418-4.184-0.824-8.726-5.009-10.145C329.752,0.142,328.879-0.001,328,0h-74.744
	c-29.952-0.088-58.786,11.374-80.504,32h-4.072c-21.044,0-38.104,17.059-38.105,38.103c0,10.106,4.014,19.799,11.161,26.945
	L160,115.313L160,241.888z M176.168,251.201l56.112,18.696l-28.2,84.552C187,322.621,177.451,287.299,176.168,251.201z M240,404.497
	c-9.364-10.02-17.851-20.825-25.368-32.296c0.389-0.515,0.712-1.076,0.96-1.672L240,297.297l24.408,73.232
	c0.228,0.618,0.534,1.204,0.912,1.744C257.817,383.718,249.346,394.499,240,404.497L240,404.497z M275.92,354.449l-28.2-84.592
	l56.12-18.656C302.551,287.299,293,322.62,275.92,354.449L275.92,354.449z M304,234.241l-64,21.328l-64-21.328V114.809l27.496-34.4
	L249,85.465c16.083,1.754,32.301-1.776,46.2-10.056c0.488-0.296,0.944-0.64,1.424-0.944c4.812,9.104,7.343,19.239,7.376,29.536
	L304,234.241z M336,75.489c0.03,11.018-4.349,21.59-12.16,29.36l-3.84,3.84v-4.688c-0.053-13.914-3.755-27.571-10.736-39.608
	c5.57-5.548,10.221-11.948,13.776-18.96C331.325,53.232,336.016,64.11,336,75.489z M153.048,85.737
	c-8.629-8.642-8.619-22.642,0.023-31.271c4.142-4.136,9.755-6.461,15.609-6.465H176c2.122,0,4.156-0.844,5.656-2.344
	c18.946-19.054,44.73-29.734,71.6-29.656h63.648l-4.8,14.328c-4.377,13.12-13.301,24.243-25.16,31.36
	c-10.889,6.501-23.601,9.273-36.208,7.896l-49.88-5.536c-2.725-0.302-5.415,0.812-7.128,2.952l-26.4,33.024L153.048,85.737z"/>
<path d="M146.536,416.416c-2.574-0.86-5.408-0.357-7.528,1.336l-40,32c-3.468,2.738-4.06,7.768-1.322,11.236
	c2.738,3.468,7.768,4.06,11.236,1.322c0.026-0.021,0.052-0.041,0.078-0.062l36.6-29.28l91.872,30.616h0.072
	c1.652,0.557,3.445,0.531,5.08-0.072c0.061-0.003,0.123-0.003,0.184,0l59.2-22.192l20.072,20.072
	c14.169,14.169,37.143,14.169,51.312,0s14.169-37.143,0-51.312l-15.712-15.72c-2.312-2.309-5.796-2.981-8.8-1.696l-56,24
	c-4.037,1.684-5.945,6.321-4.261,10.358c0.271,0.65,0.628,1.262,1.061,1.818l-49.84,18.672L146.536,416.416z M350.176,409.488
	l11.88,11.888c7.797,8.047,7.594,20.891-0.453,28.688c-7.868,7.623-20.367,7.623-28.235,0l-23.352-23.368L350.176,409.488z"/>
<g>
</g>
<g>
</g>
<g>
</g>
<g>
</g>
<g>
</g>
<g>
</g>
<g>
</g>
<g>
</g>
<g>
</g>
<g>
</g>
<g>
</g>
<g>
</g>
<g>
</g>
<g>
</g>
<g>
</g>
</svg>
